<?xml version="1.0" standalone="no"?>
<!DOCTYPE svg PUBLIC "-//W3C//DTD SVG 20010904//EN"
 "http://www.w3.org/TR/2001/REC-SVG-20010904/DTD/svg10.dtd">
<svg version="1.0" xmlns="http://www.w3.org/2000/svg"
 width="1024.000000pt" height="1024.000000pt" viewBox="0 0 1024.000000 1024.000000"
 preserveAspectRatio="xMidYMid meet">

<g transform="translate(0.000000,1024.000000) scale(0.100000,-0.100000)"
fill="#000000" stroke="none">
<path d="M4137 9385 c-25 -6 -57 -19 -71 -28 -14 -9 -112 -110 -218 -224 -106
-113 -235 -252 -287 -307 -52 -56 -252 -270 -445 -476 -193 -206 -407 -435
-475 -510 -69 -74 -231 -247 -361 -385 -212 -225 -661 -705 -830 -889 -36 -39
-125 -136 -199 -216 -227 -245 -688 -745 -839 -909 -78 -86 -151 -174 -162
-197 -24 -48 -26 -111 -5 -160 17 -41 544 -617 1180 -1291 83 -87 224 -240
315 -338 91 -99 264 -286 386 -415 121 -129 303 -325 404 -435 101 -110 267
-290 370 -400 384 -411 630 -676 805 -865 373 -403 381 -410 491 -410 97 1
169 44 216 131 l23 44 5 729 5 728 135 -143 c74 -79 180 -193 235 -254 55 -60
154 -169 220 -240 66 -72 140 -153 165 -180 25 -28 144 -158 266 -290 121
-132 268 -292 326 -355 126 -139 167 -165 258 -165 47 1 76 7 106 22 39 21
199 187 600 623 98 108 267 290 375 405 107 116 249 269 314 340 124 135 736
796 1231 1330 158 171 362 391 453 490 91 99 204 220 251 270 247 263 558 612
577 649 15 28 22 59 23 99 0 93 -24 134 -165 288 -400 433 -819 885 -945 1019
-490 523 -1181 1264 -1450 1555 -96 105 -207 224 -246 265 -39 41 -189 203
-334 360 -570 616 -657 707 -700 724 -90 36 -203 6 -269 -70 -62 -71 -713
-777 -821 -889 -58 -61 -217 -229 -354 -373 -137 -144 -253 -259 -258 -256 -5
3 -8 309 -8 717 2 752 2 741 -45 804 -52 67 -158 101 -248 78z m2053 -702
c276 -303 712 -772 1043 -1123 l128 -135 -1297 -3 c-714 -1 -1299 0 -1302 3
-6 6 406 454 713 775 55 58 207 221 338 363 131 141 241 257 245 257 4 0 63
-62 132 -137z m-2203 -963 c-2 -327 0 -569 5 -590 15 -54 57 -109 107 -138
l46 -27 1816 -5 1816 -5 263 -280 c145 -154 402 -426 571 -605 168 -179 369
-394 445 -477 77 -82 197 -212 268 -287 l129 -137 -25 -27 c-13 -15 -144 -153
-289 -308 -443 -470 -913 -977 -1261 -1360 l-110 -121 -1080 -6 c-595 -3
-1401 -3 -1792 0 -524 4 -722 3 -753 -6 -54 -15 -101 -55 -124 -106 -17 -38
-19 -84 -19 -770 0 -401 -4 -736 -8 -743 -6 -8 -53 36 -153 145 -80 87 -221
241 -315 342 -250 273 -312 339 -619 666 -154 164 -309 331 -345 370 -36 39
-153 165 -260 279 -202 216 -404 433 -670 723 -84 92 -309 334 -500 537 -190
202 -346 374 -348 380 -1 7 104 125 235 262 131 137 319 337 418 444 190 206
354 382 600 645 154 163 932 1002 1084 1168 227 248 553 599 696 750 l160 169
8 -163 c4 -90 6 -414 4 -719z m3333 -4839 c0 -5 -39 -52 -87 -103 -49 -52
-176 -188 -283 -303 -107 -116 -231 -248 -275 -295 -318 -339 -556 -601 -588
-647 -12 -18 -25 -32 -29 -30 -3 1 -118 124 -255 273 -136 149 -356 387 -488
529 -422 455 -524 569 -519 577 7 11 2524 10 2524 -1z"/>
<path d="M7015 6422 c-59 -28 -105 -71 -126 -117 -17 -36 -19 -72 -19 -386 l0
-346 -1037 -6 c-570 -4 -1222 -7 -1450 -7 l-413 0 0 326 c0 214 -4 341 -12
371 -15 60 -87 137 -143 152 -26 7 -183 11 -445 11 l-405 0 -52 -30 c-28 -16
-61 -43 -73 -60 -28 -39 -50 -111 -50 -162 l0 -38 -140 0 c-154 0 -192 -9
-243 -58 -16 -15 -38 -45 -50 -67 -20 -37 -22 -58 -25 -252 l-4 -213 -164 0
c-118 0 -174 -4 -197 -14 -39 -17 -92 -71 -106 -109 -14 -36 -14 -469 -1 -517
5 -20 24 -50 42 -67 57 -55 90 -63 268 -63 l160 0 0 -191 c0 -213 8 -260 53
-314 52 -64 90 -75 260 -75 l147 0 0 -62 c0 -72 23 -129 66 -170 59 -55 64
-56 524 -60 423 -3 425 -3 467 19 51 27 96 82 112 132 7 25 11 150 11 370 l0
331 1450 0 1450 0 0 -339 c0 -226 4 -349 11 -372 18 -51 55 -97 102 -122 40
-21 53 -22 262 -22 213 0 221 1 258 23 20 13 50 40 65 60 24 31 27 46 30 124
l4 88 149 0 c195 0 240 18 292 115 20 37 22 58 25 253 l3 212 177 0 c165 0
180 2 217 23 91 51 108 118 103 406 l-3 208 -30 48 c-20 32 -45 56 -74 72 -41
21 -55 23 -217 23 l-173 0 -3 223 -3 222 -28 48 c-15 26 -47 60 -69 75 -40 26
-46 27 -204 30 l-162 3 -4 73 c-3 61 -8 80 -32 115 -16 23 -50 54 -75 69 -45
26 -50 27 -241 30 -174 2 -199 1 -235 -16z m355 -1257 l0 -1045 -135 0 -135 0
0 1038 c0 571 3 1042 7 1045 3 4 64 7 135 7 l128 0 0 -1045z m-4110 -10 l0
-1035 -120 0 -120 0 0 1035 0 1035 120 0 120 0 0 -1035z m479 258 c-1 -428 -5
-893 -8 -1033 l-6 -255 -90 -3 c-49 -2 -100 0 -112 3 l-23 5 0 1030 0 1030
120 0 120 0 -1 -777z m4101 -243 l0 -750 -120 0 -120 0 0 750 0 750 120 0 120
0 0 -750z m-5050 148 c0 -326 3 -664 7 -750 l6 -158 -121 0 -122 0 0 750 0
750 115 0 115 0 0 -592z m-460 -163 l0 -175 -130 0 -130 0 0 175 0 175 130 0
130 0 0 -175z m4538 8 l-3 -168 -1447 -3 -1448 -2 0 170 0 170 1450 0 1450 0
-2 -167z m1472 -8 l0 -165 -135 0 -135 0 0 165 0 165 135 0 135 0 0 -165z"/>
</g>
</svg>
